# xmcd
#
# Track frame offsets: 
#        150
#        13483
#        29700
#        43214
#        56073
#        75169
#        92904
#        106555
#        124764
#        144883
#        159985
#        181867
#        212924
#        226510
#        244148
#        255912
#        272440
#        285765
#
# Disc length: 3976 seconds
#
# Revision: 4
# Processed by: cddbd v1.5.2PL0 Copyright (c) Steve Scherf et al.
# Submitted via: ExactAudioCopyFreeDBPlugin 1.0
#
DISCID=e10f8612
DTITLE=Various Artist - Motown 50
DYEAR=2008
DGENRE=Pop
TTITLE0=The Temptations - My Girl
TTITLE1=Diana Ross - Aint No Mountain High Enough
TTITLE2=Jackson 5 - I Want You Back
TTITLE3=The Supremes - You Cant Hurry Love
TTITLE4=Stevie Wonder - Superstition
TTITLE5=Marvin Gaye - Whats Going On
TTITLE6=The Supremes - Stop In The Name of Love
TTITLE7=Lionel Richie - Say You Say Me
TTITLE8=Lionel Richie and Diana Ross - Endless Love
TTITLE9=Stevie Wonder - Isnt She Lovely
TTITLE10=Marvin Gaye - Lets Get It On
TTITLE11=The Temptations - Papa Was A Rollin Stone
TTITLE12=The Four Tops - Reach Out Ill Be There
TTITLE13=Jackson 5 - Ill Be There
TTITLE14=The Supremes - Baby Love
TTITLE15=Thelma Houston - Dont Leave Me This Way
TTITLE16=Jackson 5 - ABC
TTITLE17=Michael Jackson - Ben
EXTD=
EXTT0=
EXTT1=
EXTT2=
EXTT3=
EXTT4=
EXTT5=
EXTT6=
EXTT7=
EXTT8=
EXTT9=
EXTT10=
EXTT11=
EXTT12=
EXTT13=
EXTT14=
EXTT15=
EXTT16=
EXTT17=
PLAYORDER=
